<svg width="20" height="20" viewBox="0 0 20 20" fill="none" xmlns="http://www.w3.org/2000/svg">
<path d="M11.4141 19.9999L9.99997 18.5858L13.5858 15L4.99999 6.41413L1.41414 9.99997L0 8.58584L1.41414 7.12119L0 5.70706L2.12121 3.58585L0.707069 2.12121L2.12121 0.707069L3.58585 2.12121L5.70706 0L7.12119 1.41414L8.58584 0L9.99997 1.41414L6.41413 4.99999L15 13.5858L18.5858 9.99997L19.9999 11.4141L18.5858 12.8788L19.9999 14.2929L17.8787 16.4141L19.2929 17.8787L17.8787 19.2929L16.4141 17.8787L14.2929 19.9999L12.8788 18.5858L11.4141 19.9999Z" fill="#344B4A"/>
</svg>
